<svg xmlns="http://www.w3.org/2000/svg" width="15.253" height="11.439" viewBox="0 0 15.253 11.439">
  <path id="icon-admin" d="M11.821,72.58h.667a.41.41,0,0,0,.381-.381V65.335a.41.41,0,0,0-.381-.381h-.667a.41.41,0,0,0-.381.381V72.2A.41.41,0,0,0,11.821,72.58Zm-5.72,0h.667A.41.41,0,0,0,7.15,72.2v-5.91a.41.41,0,0,0-.381-.381H6.1a.41.41,0,0,0-.381.381V72.2A.41.41,0,0,0,6.1,72.58Zm2.86,0h.667a.41.41,0,0,0,.381-.381v-4a.41.41,0,0,0-.381-.381H8.961a.41.41,0,0,0-.381.381v4A.41.41,0,0,0,8.961,72.58Zm5.815,1.43H1.43V64.477A.477.477,0,0,0,.953,64H.477A.477.477,0,0,0,0,64.477v10.01a.953.953,0,0,0,.953.953H14.776a.477.477,0,0,0,.477-.477v-.477A.477.477,0,0,0,14.776,74.01ZM3.241,72.58h.667A.41.41,0,0,0,4.29,72.2V70.1a.41.41,0,0,0-.381-.381H3.241a.41.41,0,0,0-.381.381v2.1A.41.41,0,0,0,3.241,72.58Z" transform="translate(0 -64)"/>
</svg>
